<?xml version="1.0" encoding="utf-8"?>
<!-- Generator: Adobe Illustrator 27.5.0, SVG Export Plug-In . SVG Version: 6.00 Build 0)  -->
<svg version="1.1" xmlns="http://www.w3.org/2000/svg" xmlns:xlink="http://www.w3.org/1999/xlink" x="0px" y="0px"
	 viewBox="0 0 500 500" style="enable-background:new 0 0 500 500;" xml:space="preserve">
<g id="BACKGROUND">
	<g>
		<path style="opacity:0.3;fill:#1C071B;" d="M288.36,459.614c0,7.976-57.531,14.441-128.5,14.441
			c-70.969,0-128.5-6.466-128.5-14.441c0-7.977,57.531-14.442,128.5-14.442C230.829,445.171,288.36,451.637,288.36,459.614z"/>
		
			<ellipse transform="matrix(0.7071 -0.7071 0.7071 0.7071 -84.4855 151.2589)" style="opacity:0.3;fill:#F2A59D;" cx="140.343" cy="177.613" rx="120.108" ry="120.108"/>
		<ellipse style="opacity:0.3;fill:#1C071B;" cx="408.86" cy="461.6" rx="70.5" ry="9.455"/>
		<g>
			
				<line style="fill:none;stroke:#7674E1;stroke-width:4.1061;stroke-linecap:round;stroke-miterlimit:10;" x1="359.405" y1="56.35" x2="359.405" y2="231.692"/>
			
				<line style="fill:none;stroke:#7674E1;stroke-width:3.6967;stroke-linecap:round;stroke-miterlimit:10;" x1="435.247" y1="56.35" x2="435.247" y2="198.472"/>
			
				<line style="fill:none;stroke:#7674E1;stroke-width:2.2067;stroke-linecap:round;stroke-miterlimit:10;" x1="407.36" y1="56.35" x2="407.36" y2="150.583"/>
			
				<line style="fill:none;stroke:#7674E1;stroke-width:2.2067;stroke-linecap:round;stroke-miterlimit:10;" x1="389.346" y1="56.712" x2="389.346" y2="150.945"/>
			
				<line style="fill:none;stroke:#7674E1;stroke-width:1.538;stroke-linecap:round;stroke-miterlimit:10;" x1="452.36" y1="56.35" x2="452.36" y2="102.125"/>
			
				<line style="fill:none;stroke:#7674E1;stroke-width:2.2067;stroke-linecap:round;stroke-miterlimit:10;" x1="337.36" y1="56.35" x2="337.36" y2="150.583"/>
		</g>
		<g>
			<g>
				<g>
					<path style="fill:#7674E1;" d="M101.96,79.046l9.611-45.755l6.967,1.464l-3.888,18.51l6.239,1.31l3.888-18.51l6.968,1.463
						l-9.611,45.755l-6.967-1.463l4.467-21.266l-6.239-1.31l-4.467,21.266L101.96,79.046z"/>
					<path style="fill:#7674E1;" d="M126.917,84.288l16.136-44.384l9.203,1.933l-2.669,47.213l-6.499-1.365l0.623-8.393
						l-7.383-1.551l-2.703,7.956L126.917,84.288z M144.157,73.55l1.76-23.626l-0.104-0.021l-7.635,22.392L144.157,73.55z"/>
				</g>
				<g>
					<path style="fill:#7674E1;" d="M29.754,155.649l-14.955-22.908l3.488-2.277l6.05,9.268l3.124-2.039l-6.05-9.268l3.488-2.277
						l14.955,22.908l-3.488,2.277l-6.95-10.647l-3.124,2.039l6.951,10.648L29.754,155.649z"/>
					<path style="fill:#7674E1;" d="M42.249,147.492l-11.688-25.041l4.607-3.008l18.43,20.64l-3.253,2.124l-3.215-3.731
						l-3.696,2.413l2.174,4.411L42.249,147.492z M44.938,135.917l-9.046-10.503l-0.052,0.034l6.105,12.423L44.938,135.917z"/>
				</g>
				<g>
					<path style="fill:#7674E1;" d="M214.433,74.602l2.222-0.702l8.29,26.245l-2.221,0.702l-4.174-13.212l-4.802,1.517l4.173,13.212
						l-2.222,0.702l-8.29-26.245l2.222-0.702l3.589,11.363l4.803-1.517L214.433,74.602z"/>
					<path style="fill:#7674E1;" d="M224.095,71.549l2.268-0.716l12.957,24.771l-2.146,0.678l-2.547-5.051l-5.249,1.658l0.892,5.573
						l-2.102,0.664L224.095,71.549z M233.75,89.492l-7.107-14.09l-0.03,0.01l2.47,15.554L233.75,89.492z"/>
				</g>
				<g>
					<path style="fill:#7674E1;" d="M118.871,103.696l1.601-0.506l5.975,18.915l-1.601,0.506l-3.008-9.522l-3.461,1.093l3.008,9.522
						l-1.601,0.506l-5.975-18.915l1.602-0.506l2.587,8.19l3.461-1.093L118.871,103.696z"/>
					<path style="fill:#7674E1;" d="M125.835,101.496l1.633-0.516l9.339,17.852l-1.548,0.489l-1.835-3.64l-3.783,1.195l0.643,4.017
						l-1.515,0.479L125.835,101.496z M132.792,114.427l-5.123-10.153l-0.021,0.007l1.779,11.209L132.792,114.427z"/>
				</g>
			</g>
		</g>
	</g>
</g>
<g id="OBJECTS">
	<g>
		<g>
			<path style="fill:#E97671;" d="M176.003,216.934c0,0-32.197-2.519-36.535-33.544c-4.339-31.025,11.952-28.93,11.063-47.453
				c-0.889-18.523-6.22-44.884,18.66-51.697c34.662-9.49,36.136,19.302,46.503,34.235c10.367,14.933,35.246,21.74,32.58,54.916
				c-2.665,33.176-20.618,40.632-30.507,44.412C207.877,221.583,176.003,216.934,176.003,216.934z"/>
			<path style="opacity:0.3;fill:#E97671;" d="M237.621,139.928c-5.692,17.17-19.076,31.266-38.16,35.242c-14,4-28,0-40-7
				c-6.131-3.27-11.259-8.212-15.044-14.073c-3.658,5.835-7.147,12.975-4.849,29.407c4.338,31.025,36.535,33.544,36.535,33.544
				s31.874,4.649,41.763,0.869c9.889-3.78,27.842-11.236,30.508-44.412C249.665,157.425,244.481,147.547,237.621,139.928z"/>
		</g>
		<g>
			<path style="fill:#F2A59D;" d="M203.401,156.585c0,0,1.462,8.969,6.793,9.304c5.332,0.335,26.074,1.588,35.28,2.461
				c9.464,0.897,16.901,3.53,33.784,3.305c9.616-0.128,26.853-2.1,27.989-7.084c0.934-4.094-2.666-3.973-15.551-5.164
				c-12.884-1.191-31.871-3.267-39.424-3.934c-7.553-0.666-50.536-3.316-50.536-3.316L203.401,156.585z"/>
			<path style="fill:#310E2E;" d="M196.07,221.335c0,0-19.548-31.579-24.214-37.946c-4.665-6.368-6.664-17.976-1.111-22.279
				c5.554-4.304,14.884-9.857,18.438-10.079c3.555-0.222,15.643,1.555,15.643,1.555s5.823,9.33,8.863,12.662
				c3.04,3.332,7.414,8.664,5.782,14.217c-1.631,5.553-4.297,8.886-4.297,8.886l-2.113,30.713L196.07,221.335z"/>
			<path style="fill:#F2A59D;" d="M168.524,274.987c0,0-1.983-39.688-1.547-57.164c0.436-17.476-4.451-56.186,4.657-55.824
				c9.107,0.361,9.552,39.681,9.996,54.564c0.444,14.884,0,32.475,0,32.475L168.524,274.987z"/>
			<path style="fill:#F2A59D;" d="M320.735,162.93c-2.977-1.257-17.101-1.974-17.101-1.974l-6.626,6.59
				c0,0,5.471,11.001,14.364,12.009c4.454,0.505,11.273-6.924,11.987-7.887C324.366,170.311,323.712,164.187,320.735,162.93z"/>
			<path style="fill:none;stroke:#310E2E;stroke-width:0.8886;stroke-linecap:round;stroke-miterlimit:10;" d="M320.248,166.064
				c1.819,0.807,2.48,2.292,2.495,4.003"/>
			<path style="fill:none;stroke:#310E2E;stroke-width:0.8886;stroke-linecap:round;stroke-miterlimit:10;" d="M317.166,168.666
				c1.466,0.914,2.12,2.273,2.11,3.779"/>
			<path style="fill:#F2A59D;" d="M311.423,179.528c0,0,5.019,1.777,12.262,3.696c4.852,1.286,7.692,0.077,8.027-1.969
				c0.333-2.044-15.625-8.116-20.977-10.803L311.423,179.528z"/>
			<path style="fill:#F2A59D;" d="M297.009,167.546c0,0-0.111,6.157,2.889,9.157s8.156,6.005,10.031,7.19s3.766-0.004,3.194-2.254
				c-0.347-1.366-4.221-6.349-7.846-8.974S297.009,167.546,297.009,167.546z"/>
			<path style="fill:none;stroke:#310E2E;stroke-width:0.8886;stroke-linecap:round;stroke-miterlimit:10;" d="M311.611,179.139
				c-2.197-2.16-4.694-4.809-6.5-7.25"/>
		</g>
		<g>
			<path style="fill:#EA938C;" d="M182.717,146.44l3.357,7.997c0,0,2.666,1.333,4.887,0c2.222-1.333,1.332-2.537,1.332-2.537
				l-2.517-7.682L182.717,146.44z"/>
			<path style="fill:#F2A59D;" d="M156.01,114.007c0,0-0.131,4.734,0.533,10.669c1.063,9.493,4.163,22.059,13.092,23.245
				c14.512,1.926,22.066-2.732,25.177-6.698c3.109-3.965,3.406-9.148,2.369-14.036c-1.037-4.887-3.999-14.514-3.999-14.514
				s-10.729,1.333-16.323-3.258c-5.595-4.591-7.669-11.107-7.669-11.107s-1.48,7.404-4.887,10.811
				C160.897,112.526,156.01,114.007,156.01,114.007z"/>
			<path style="fill:#EA938C;" d="M153.196,120.967c-1.184,1.926-1.332,7.257,0.889,10.664c2.221,3.406,4.238,2.657,4.238,2.657
				s-1.128-13.69-2.988-14.06C154.356,120.032,153.196,120.967,153.196,120.967z"/>
			<path style="fill:#EA938C;" d="M195.621,121.03c0,0-0.771-6.875,2.098-7.319c2.869-0.444,5.83,3.406,5.83,8.442
				c0,5.035-5.83,8.145-5.83,8.145L195.621,121.03z"/>
			<path style="fill:#310E2E;" d="M164.603,128.406c-0.82-0.1-1.864,0.353-2.292,1.123c-0.077,0.139-0.134,0.288-0.166,0.446
				c-0.744,3.656,1.794,5.868,4.803,7.048c-0.677-2.714-0.919-5.536-1.497-8.275C165.203,128.581,164.938,128.447,164.603,128.406z"
				/>
			<path style="fill:#FFFFFF;" d="M172.079,131.167c-2.126,0.008-4.066-0.658-5.825-1.828c-0.288-0.191-0.535-0.41-0.803-0.591
				c0.578,2.739,0.819,5.561,1.497,8.275c1.513,0.593,3.142,0.93,4.539,1.049c5.101,0.436,8.647-0.97,10.963-2.933
				c-0.212-3.519-0.874-6.811-1.311-10.216C179.161,126.57,176.722,131.148,172.079,131.167z"/>
			<path style="fill:#310E2E;" d="M186,127.854c-0.444-3.184-2.74-4.591-4.739-3.036c-0.04,0.031-0.083,0.071-0.123,0.105
				c0.437,3.405,1.1,6.698,1.311,10.216C185.242,132.772,186.243,129.595,186,127.854z"/>
			<path style="fill:none;stroke:#310E2E;stroke-width:0.8886;stroke-linecap:round;stroke-miterlimit:10;" d="M170.523,116.154
				c0.278,2.886,0.839,6.122,0.503,9.02c-0.024,0.024-0.049,0.049-0.074,0.074c-4.638-0.989-5.242,2.384-1.022,4.013"/>
			<path style="fill:none;stroke:#310E2E;stroke-width:1.7772;stroke-linecap:round;stroke-miterlimit:10;" d="M163.415,120.597
				c1.954,0,3.498,0.027,5.48,2.592"/>
			<path style="fill:none;stroke:#310E2E;stroke-width:1.7772;stroke-linecap:round;stroke-miterlimit:10;" d="M175.048,122.004
				c1.545-2.143,4.445-4.32,7.183-3.407"/>
			<path style="fill:#E97671;" d="M162.867,114.342c-0.277,0.181-0.501,0.436-0.647,0.783c-0.445,1.061,0.124,2.076,0.973,2.732
				c2.296,1.777,5.321,2.608,5.919,0.527c0.535-1.863-0.217-3.434-2.06-3.986C165.952,114.069,163.983,113.612,162.867,114.342z"/>
			<path style="fill:#E97671;" d="M179.665,113.115c0.277,0.181,0.501,0.436,0.647,0.783c0.445,1.061-0.125,2.076-0.973,2.732
				c-2.296,1.778-5.321,2.608-5.918,0.527c-0.535-1.862,0.217-3.434,2.059-3.986C176.58,112.841,178.548,112.385,179.665,113.115z"
				/>
			<path style="fill:none;stroke:#310E2E;stroke-width:0.8886;stroke-linecap:round;stroke-miterlimit:10;" d="M166.192,132.926
				c6.497,1.982,10.093,1.296,15.883-1.999"/>
			<path style="fill:none;stroke:#310E2E;stroke-width:0.674;stroke-linecap:round;stroke-miterlimit:10;" d="M198.676,126.501
				c2.068-2.031,1.712-4.362-1.149-4.827c-1.15-4.411,1.886-8.483,3.47-2.516"/>
			<path style="fill:none;stroke:#310E2E;stroke-width:0.674;stroke-linecap:round;stroke-miterlimit:10;" d="M157.072,131.538
				c-1.621-1.555-2.432-2.277-0.84-4.18c-0.232-5.354-3.089-7.833-2.503-1.747"/>
			<path style="fill:#FFFFFF;" d="M172.079,131.167c-2.126,0.008-4.066-0.658-5.825-1.828c-0.288-0.191-0.535-0.41-0.803-0.591
				c0.578,2.739,0.819,5.561,1.497,8.275c1.513,0.593,3.142,0.93,4.539,1.049c5.101,0.436,8.647-0.97,10.963-2.933
				c-0.212-3.519-0.874-6.811-1.311-10.216C179.161,126.57,176.722,131.148,172.079,131.167z"/>
			<path style="opacity:0.3;fill:#E97671;" d="M162.867,114.342c-0.277,0.181-0.501,0.436-0.647,0.783
				c-0.445,1.061,0.124,2.076,0.973,2.732c2.296,1.777,5.321,2.608,5.919,0.527c0.535-1.863-0.217-3.434-2.06-3.986
				C165.952,114.069,163.983,113.612,162.867,114.342z"/>
			<path style="opacity:0.3;fill:#E97671;" d="M179.665,113.115c0.277,0.181,0.501,0.436,0.647,0.783
				c0.445,1.061-0.125,2.076-0.973,2.732c-2.296,1.778-5.321,2.608-5.918,0.527c-0.535-1.862,0.217-3.434,2.059-3.986
				C176.58,112.841,178.548,112.385,179.665,113.115z"/>
		</g>
		<g>
			<path style="fill:#5755B8;" d="M212.435,222.561l-13.903,0.943c0.927,15.122,1.374,29.953,3.205,45.235l3.664-0.861l0.005,0.78
				c3.667-15.32,6.001-30.642,7.655-45.963C212.66,222.535,212.435,222.561,212.435,222.561z"/>
			<path style="fill:#5755B8;" d="M225.254,257.403c-4.359-26.462-9.3-32.844-11.564-34.367
				C214.474,236.192,216.309,249.037,225.254,257.403z"/>
			<path style="fill:#7674E1;" d="M225.467,258.698c-0.07-0.443-0.143-0.863-0.213-1.295c-8.945-8.366-10.78-21.21-11.564-34.367
				c-0.241-0.162-0.452-0.27-0.628-0.34c-1.654,15.321-3.988,30.643-7.655,45.963l1.328,186.709l13.108-0.204l5.922-0.092
				l13.921-11.848C239.685,443.224,231.391,295.721,225.467,258.698z"/>
			<path style="opacity:0.5;fill:#7674E1;" d="M205.821,327.005l0.913,128.362l13.108-0.204l5.922-0.092l13.921-11.848
				c0,0-3.432-61.024-7.456-114.423C223.207,329.611,214.332,328.938,205.821,327.005z"/>
			<path style="fill:#5755B8;" d="M197.049,223.605l-2.089,0.142c0,0-10.276,13.798-20.752,35.588
				C190.311,258.717,194.564,239.987,197.049,223.605z"/>
			<path style="fill:#7674E1;" d="M198.532,223.504l-1.483,0.101c-2.485,16.382-6.738,35.112-22.841,35.73
				c-0.487,1.016-0.975,2.04-1.462,3.087c-10.96,23.57-41.763,109.124-41.763,109.124l19.845,90.871c0,0,9.478-62.141,23.399-108.05
				c13.92-45.91,27.398-85.6,27.398-85.6l0.113-0.027C199.906,253.458,199.459,238.626,198.532,223.504z"/>
			<polygon style="fill:#CE654D;" points="192.01,219.064 216.587,216.934 217.343,225.737 191.764,225.737 			"/>
			<path style="fill:none;stroke:#310E2E;stroke-width:0.8886;stroke-linecap:round;stroke-miterlimit:10;" d="M189.036,240.333
				c9.988,8.335,21.978,12.404,32.581,19.251"/>
			<path style="fill:none;stroke:#310E2E;stroke-width:0.8886;stroke-linecap:round;stroke-miterlimit:10;" d="M199.995,242.406
				c5.487-1.735,10.449-4.98,15.699-7.405"/>
			<path style="fill:none;stroke:#310E2E;stroke-width:0.8886;stroke-linecap:round;stroke-miterlimit:10;" d="M189.924,270.543
				c8.847-1.765,18.814-3.351,27.842-2.665"/>
			
				<line style="fill:none;stroke:#310E2E;stroke-width:0.8886;stroke-linecap:round;stroke-miterlimit:10;stroke-dasharray:4.4429;" x1="213.689" y1="455.145" x2="209.618" y2="267.813"/>
			
				<line style="fill:none;stroke:#310E2E;stroke-width:0.8886;stroke-linecap:round;stroke-miterlimit:10;stroke-dasharray:4.4429;" x1="138.947" y1="364.547" x2="177.406" y2="257.403"/>
			<path style="fill:#F2A59D;" d="M212.731,221.637c0,1.737-1.474,3.145-3.291,3.145h-6.154c-1.817,0-3.292-1.408-3.292-3.145l0,0
				c0-1.738,1.474-3.146,3.292-3.146h6.154C211.257,218.492,212.731,219.899,212.731,221.637L212.731,221.637z"/>
			<path style="opacity:0.5;fill:#7674E1;" d="M158.012,298.673c-12.616,32.841-27.029,72.872-27.029,72.872l19.845,90.871
				c0,0,9.478-62.141,23.399-108.05c3.73-12.3,7.427-24.151,10.842-34.914C174.921,314.269,165.729,307.201,158.012,298.673z"/>
			<polygon style="fill:#CE654D;" points="251.235,454.479 221.021,455.145 239.685,443.224 			"/>
		</g>
	</g>
	<g>
		<g>
			<path style="fill:#1C071B;" d="M93.036,255.364l-8.704,2.691l-2.894,26.337C92.602,280.01,93.083,267.538,93.036,255.364z"/>
			<path style="fill:#1C071B;" d="M121.531,276.105c-1.02-7.91-1.748-13.269-2.101-14.446c-1.332-4.443-2.222-13.773-2.222-13.773
				l-7.012,2.169C111.008,260.14,112.934,271.5,121.531,276.105z"/>
			<path style="fill:#310E2E;" d="M93.036,255.364c0.047,12.174-0.434,24.647-11.598,29.028l-19.765,179.86h38.653
				c0,0-3.998-103.518-2.222-128.843c1.778-25.324,4.443-55.979,4.443-55.979l0.417-0.238c-1.539-8.667-4.207-16.581-6.1-25.014
				L93.036,255.364z"/>
			<path style="fill:#1C071B;" d="M105.956,251.367l-9.091,2.812c1.893,8.433,4.561,16.347,6.1,25.014l2.693-1.539
				c0,0,0.002,0.047,0.004,0.113C109.394,269.511,108.049,260.385,105.956,251.367z"/>
			<path style="fill:#310E2E;" d="M134.981,366.066c-5.551-26.451-10.623-68.02-13.45-89.961
				c-8.598-4.605-10.523-15.965-11.334-26.05l-4.242,1.312c2.094,9.019,3.438,18.145-0.293,26.399
				c0.105,3.181,2.661,80.336,2.661,123.843c0,44.429,2.666,62.644,2.666,62.644h39.098
				C150.087,464.253,142.534,402.053,134.981,366.066z"/>
			<path style="opacity:0.5;fill:#310E2E;" d="M61.673,464.253h38.653c0,0-2.808-72.709-2.671-111.16
				c-7.849-1.584-15.563-3.673-23.066-6.368L61.673,464.253z"/>
			<path style="opacity:0.5;fill:#310E2E;" d="M108.323,401.609c0,44.429,2.666,62.644,2.666,62.644h39.098
				c0,0-7.553-62.199-15.106-98.187c-0.602-2.867-1.197-5.92-1.786-9.098c-8.549-0.228-17.062-0.91-25.456-2.131
				C108.079,371.524,108.323,388.171,108.323,401.609z"/>
			<path style="fill:#7674E1;" d="M89.44,451.813c-10.363,0.682-16.034,5.212-18.873,8.61c9.74,2.763,22.791,3.16,31.778-2.055
				C101.521,454.87,98.533,451.215,89.44,451.813z"/>
			<path style="fill:#5755B8;" d="M70.568,460.423c-1.786,2.139-2.453,3.829-2.453,3.829h34.059c0,0,0.88-2.884,0.173-5.884
				C93.358,463.583,80.308,463.186,70.568,460.423z"/>
			<path style="fill:#7674E1;" d="M137.423,451.813c-10.363,0.682-16.034,5.212-18.872,8.61c9.74,2.763,22.79,3.16,31.778-2.055
				C149.504,454.87,146.517,451.215,137.423,451.813z"/>
			<path style="fill:#5755B8;" d="M118.551,460.423c-1.786,2.139-2.453,3.829-2.453,3.829h34.058c0,0,0.88-2.884,0.173-5.884
				C141.341,463.583,128.291,463.186,118.551,460.423z"/>
		</g>
		<g>
			<path style="fill:#CE654D;" d="M134.136,158.916c-3.083,6.352-6.772,12.365-12.352,16.75c3.75,3.839,14.947,14.934,19.122,17.128
				c11.26,5.919,20.741,4.724,21.029,2.992C162.194,194.231,142.672,170.277,134.136,158.916z"/>
			<path style="fill:#DF8064;" d="M120.534,234.333c0,0-5.721-2.135,2.23-17.212c7.951-15.077,9.143-16.356,16.93-21.665
				c7.787-5.309,22.24,0.329,22.24,0.329L120.534,234.333z"/>
			<path style="fill:#5755B8;" d="M134.136,158.916c-0.979-1.305-1.903-2.491-2.736-3.503c-8.084-9.816-18.948-22.126-29.665-20.273
				c-10.718,1.853,8.877,27.203,8.877,27.203s4.804,6.804,11.171,13.323C127.363,171.281,131.052,165.268,134.136,158.916z"/>
			<path style="fill:#7674E1;" d="M82.319,260.474c0,0,1.865-18.956,1.569-22.214s-25.176-62.2-25.176-62.2
				s-10.284-20.802,0.813-27.952c8.803-5.671,24.395-13.219,24.395-13.219s21.688-3.064,25.885,3.263
				c13.773,20.763,7.204,47.181,2.561,73.483c-3.038,17.212,7.065,41.137,7.065,41.137L82.319,260.474z"/>
			<path style="opacity:0.5;fill:#7674E1;" d="M113.069,207.715c-14.955,3.863-29.486,0.448-43.35-5.327
				c6.701,16.167,14.009,34.115,14.168,35.872c0.296,3.258-1.569,22.214-1.569,22.214l37.112-7.701c0,0-10.104-23.925-7.065-41.137
				C112.596,210.329,112.832,209.022,113.069,207.715z"/>
			<path style="fill:#5755B8;" d="M67.36,170.085c0.889-12.423-5.143-24.394-8.599-21.611c-3.293,2.651-12.457,16.586-19.788,31.318
				c4.431,4.305,9.525,7.931,15.037,10.662C59.579,181.734,67.042,174.542,67.36,170.085z"/>
			<path style="fill:#CE654D;" d="M38.973,179.792c-0.361,0.726-0.722,1.455-1.083,2.191c-7.701,15.698-13.032,37.024-13.032,37.024
				s13.319-5.338,18.66-13.032c3.407-4.908,6.438-9.173,10.493-15.521C48.498,187.723,43.403,184.097,38.973,179.792z"/>
			<path style="fill:#DF8064;" d="M72.929,237.075c0,0,6.22,3.11,7.701,0c1.48-3.11-16.846-25.02-27.794-27.546
				c-17.968-4.146-27.89,9.479-27.89,9.479L72.929,237.075z"/>
			<path style="fill:#DF8064;" d="M79.075,233.153c0,0-11.755,7.984-11.695,12.797c0.049,3.987,4.571,22.044,7.995,23.665
				c1.752,0.83,7.97,1.26,8.738-3.284c0.768-4.543,0.888-20.522,0-23.534C83.224,239.785,79.075,233.153,79.075,233.153z"/>
			<path style="fill:none;stroke:#310E2E;stroke-width:0.8886;stroke-linecap:round;stroke-miterlimit:10;" d="M69.06,249.862
				c2.695,3.344,11.056,3.939,14.445,1.175"/>
			<path style="fill:none;stroke:#310E2E;stroke-width:0.8886;stroke-linecap:round;stroke-miterlimit:10;" d="M69.878,257.062
				c4.074,3.128,10.893,3.944,14.217-0.593"/>
			<path style="fill:none;stroke:#310E2E;stroke-width:0.8886;stroke-linecap:round;stroke-miterlimit:10;" d="M72.129,262.96
				c3.488,2.617,9.372,3.632,11.996-0.444"/>
			<path style="fill:none;stroke:#310E2E;stroke-width:0.8609;stroke-linecap:round;stroke-miterlimit:10;" d="M74.873,236.664
				c-1.07,3.206-4.265,5.977-2.635,9.415c2.326,4.907,6.803,4.3,8.415,0.296c0.872-2.167,0.178-6.328-0.08-8.589"/>
			<path style="fill:#DF8064;" d="M118.934,226.887c0,0,12.716,6.342,13.3,11.12c0.483,3.958-1.584,22.46-4.761,24.525
				c-1.626,1.056-7.73,2.313-9.099-2.089c-1.367-4.399-3.623-20.223-3.144-23.327C115.708,234.014,118.934,226.887,118.934,226.887z
				"/>
			<path style="fill:none;stroke:#310E2E;stroke-width:0.8886;stroke-linecap:round;stroke-miterlimit:10;" d="M131.299,244.458
				c-2.617,3.405-10.961,4.194-14.415,1.509"/>
			<path style="fill:none;stroke:#310E2E;stroke-width:0.8886;stroke-linecap:round;stroke-miterlimit:10;" d="M131.176,249.541
				c-3.62,3.645-10.268,5.367-14.168,1.312"/>
			<path style="fill:none;stroke:#310E2E;stroke-width:0.8886;stroke-linecap:round;stroke-miterlimit:10;" d="M129.977,255.477
				c-3.106,3.059-8.803,4.852-11.948,1.162"/>
			<path style="fill:none;stroke:#310E2E;stroke-width:0.8886;stroke-linecap:round;stroke-miterlimit:10;" d="M124.037,229.792
				c1.558,3.025,5.352,5.266,4.091,8.906c-1.8,5.195-6.607,5.23-8.845,1.491c-1.211-2.022-1.151-6.237-1.183-8.515"/>
			<polyline style="fill:none;stroke:#310E2E;stroke-width:0.937;stroke-linecap:round;stroke-miterlimit:10;" points="
				86.773,258.055 85.665,237.889 64.799,177.895 			"/>
			
				<line style="fill:none;stroke:#310E2E;stroke-width:0.937;stroke-linecap:round;stroke-miterlimit:10;" x1="42.141" y1="176.35" x2="54.268" y2="185.333"/>
			
				<line style="fill:none;stroke:#310E2E;stroke-width:0.937;stroke-linecap:round;stroke-miterlimit:10;" x1="121.065" y1="170.902" x2="130.235" y2="158.916"/>
			<path style="fill:none;stroke:#310E2E;stroke-width:0.937;stroke-linecap:round;stroke-miterlimit:10;" d="M76.483,142.293
				c5.527,2.297,12.658,1.354,14.81-4.443"/>
			<path style="fill:none;stroke:#310E2E;stroke-width:0.937;stroke-linecap:round;stroke-miterlimit:10;" d="M91,179.963
				c4.509-2.459,9.66-4.538,14.845-3.664"/>
		</g>
		<g>
			<path style="fill:#310E2E;" d="M57.006,111.489c0,0-15.547-13.411-17.991-18.812c-2.444-5.401,5.665-12.065,5.665-12.065
				s-2.999-10.774,1.333-13.551c4.332-2.777,20.438-6.331,20.438-6.331s4.442-7.998,5.442-7.998c1,0,2.928,1.111,3.963,2.11
				c1.035,1,1.479,2.777,1.479,2.777s2.666-1.888,6.22,1.444c3.555,3.332,3.888,6.418,3.888,6.418s5.776,0.024,7.664,3.134
				c1.888,3.11-0.448,32.555-0.448,32.555L57.006,111.489z"/>
			<path style="opacity:0.5;fill:#310E2E;" d="M40.654,85.006c-1.59,2.281-2.795,5.117-1.64,7.671
				c2.444,5.401,17.991,18.812,17.991,18.812l37.652-10.318c0,0,0.814-10.269,1.092-19.318c-10.437,6.182-22.496,9.793-34.39,10.203
				C53.893,92.055,46.888,89.285,40.654,85.006z"/>
			<path style="fill:#CE654D;" d="M76.631,128.964l2.221,10.219c0,0,3.554,1.333,6.813,0.593c3.258-0.74,2.665-3.11,2.665-3.11
				l-2.007-10.367L76.631,128.964z"/>
			<path style="fill:#DF8064;" d="M83.888,74.021c-0.906-0.406-1.788-0.702-2.653-0.925c-0.3,0.042-0.601,0.098-0.901,0.185
				c-3.554,1.777-6.22,7.108-11.551,5.331c-2.103-0.525-4.516-1.976-6.872-2.528c-2.268,0.877-4.593,1.966-6.448,3.229
				c0.542,5.741,0.085,11.398-2.113,16.726c0.971,4.977,7.156,35.234,13.952,34.554c7.404-0.741,17.771-1.482,24.287-4.739
				c6.516-3.258,6.368-12.588,2.666-26.212C90.552,86.017,89.516,76.539,83.888,74.021z"/>
			<path style="fill:#310E2E;" d="M65.228,111.934c0.155,1.628,2.912,5.204,7.358,6.421c-1.349-2.589-2.62-5.093-3.694-7.747
				C66.859,110.642,65.134,110.956,65.228,111.934z"/>
			<path style="fill:#FFFFFF;" d="M78.312,110.607c-1.956,0.53-3.199,0.438-3.199,0.438s-3.407-0.486-6.222-0.438
				c1.074,2.654,2.345,5.158,3.694,7.747c1.922,0.526,4.157,0.614,6.637-0.09c2.178-0.618,3.874-1.512,5.16-2.532
				c-0.415-2.739-1.08-5.478-1.663-8.217C80.933,108.593,79.814,110.2,78.312,110.607z"/>
			<path style="fill:#310E2E;" d="M86.323,107.379c-1.092-0.959-2.356-0.615-3.604,0.137c0.583,2.739,1.248,5.478,1.663,8.217
				C87.951,112.905,88.277,109.094,86.323,107.379z"/>
			<path style="fill:#310E2E;" d="M65.224,96.272c0,0,2.114,2.555,6.001,2.555c3.888,0,2.888-2.777,0-4.332
				c-2.888-1.555-4.554-2.333-5.554-1.444C64.672,93.94,65.224,96.272,65.224,96.272z"/>
			<path style="fill:#310E2E;" d="M85.187,93.273c0,0-1.429,2.992-5.199,3.938c-3.771,0.946-3.477-1.992-1.054-4.202
				c2.423-2.211,3.85-3.37,5.036-2.752C85.155,90.877,85.187,93.273,85.187,93.273z"/>
			<path style="fill:none;stroke:#310E2E;stroke-width:0.8886;stroke-linecap:round;stroke-miterlimit:10;" d="M75.891,93.829
				c-0.146,3.154,0.118,6.43,1.463,9.311c3.593-1.957,4.604,4.205,0.758,4.24"/>
			<path style="fill:none;stroke:#310E2E;stroke-width:1.7772;stroke-linecap:round;stroke-miterlimit:10;" d="M65.072,103.209
				c2.23-1.111,5.854-2.364,7.442,0.111"/>
			<path style="fill:none;stroke:#310E2E;stroke-width:1.7772;stroke-linecap:round;stroke-miterlimit:10;" d="M79.503,101.377
				c1.05-2.274,3.778-3.405,5.998-2.11"/>
			<path style="fill:none;stroke:#310E2E;stroke-width:0.8886;stroke-linecap:round;stroke-miterlimit:10;" d="M70.641,114.515
				c3.59,0.461,10.376-0.085,12.992-2.804"/>
			<path style="fill:#CE654D;" d="M56.563,109.957l-5.775-8.07c0,0-5.887,1.428-2.888,8.07c2.999,6.642,10.333,5.776,10.333,5.776
				L56.563,109.957z"/>
			<path style="fill:#CE654D;" d="M93.657,97.394l1.116-7.302c0,0,5.776-1.483,5.887,4.848c0.111,6.331-5.269,9.255-5.269,9.255
				L93.657,97.394z"/>
			<path style="fill:none;stroke:#310E2E;stroke-width:0.937;stroke-linecap:round;stroke-miterlimit:10;" d="M48.456,106.423
				c0.337-0.853,1.349-1.983,2.021-1.948c0.672,0.035,1.745,2.123,2.532,3.444c-1.829,2.051-0.05,4.902,2.357,3.189"/>
			<path style="fill:none;stroke:#310E2E;stroke-width:0.8886;stroke-linecap:round;stroke-miterlimit:10;" d="M98.759,92.786
				c-0.691-0.598-2.181-1.589-2.287-0.881c-0.106,0.709-0.384,2.674-0.691,3.957c2.584,0.858,1.322,3.533-1.123,3.409"/>
		</g>
	</g>
	<g>
		<g>
			<path style="fill:#7674E1;" d="M381.907,372.51l11.042,63.735l0.382,2.203l6.493,0.455l1.479-59.571
				C394.323,378.963,387.663,376.868,381.907,372.51z"/>
			<path style="fill:#CE654D;" d="M368.418,294.624l13.489,77.887c5.756,4.357,12.416,6.453,19.396,6.822L403.392,295
				L368.418,294.624z"/>
			<polygon style="fill:#1C071B;" points="383.224,464.18 414.658,464.18 399.824,438.904 393.331,438.449 			"/>
			<path style="opacity:0.3;fill:#CE654D;" d="M381.907,372.51c5.756,4.357,12.416,6.453,19.396,6.822l0.824-33.267
				c-9.13-0.361-18.056-2.934-26.089-7.443L381.907,372.51z"/>
			
				<line style="fill:none;stroke:#310E2E;stroke-width:0.75;stroke-linecap:round;stroke-miterlimit:10;" x1="394.86" y1="435.555" x2="389.083" y2="380.805"/>
			
				<line style="fill:none;stroke:#310E2E;stroke-width:0.75;stroke-linecap:round;stroke-miterlimit:10;" x1="397.708" y1="436.053" x2="397.61" y2="383.305"/>
			
				<line style="fill:none;stroke:#310E2E;stroke-width:0.75;stroke-linecap:round;stroke-miterlimit:10;" x1="393.735" y1="380.805" x2="394.11" y2="390.18"/>
		</g>
		<g>
			<path style="fill:#7674E1;" d="M406.024,439.339l6.787,0.477l10.522-64.281c-4.736,1.775-9.61,3.014-14.435,3.553
				L406.024,439.339z"/>
			<path style="fill:#CE654D;" d="M412.963,293.89l-4.064,85.197c4.824-0.539,9.698-1.777,14.435-3.553l14.914-91.141
				L412.963,293.89z"/>
			<polygon style="fill:#1C071B;" points="406.024,439.339 405.484,447.014 415.755,464.18 443.7,464.18 412.812,439.816 			"/>
			<path style="opacity:0.5;fill:#7674E1;" d="M406.024,439.339l6.787,0.477l10.522-64.281c-4.736,1.775-9.61,3.014-14.435,3.553
				L406.024,439.339z"/>
			<path style="opacity:0.3;fill:#CE654D;" d="M410.487,345.774l-1.589,33.313c4.824-0.539,9.698-1.777,14.435-3.553l5.739-35.071
				c-1.246,0.539-2.483,1.069-3.712,1.592C420.479,344.007,415.485,345.226,410.487,345.774z"/>
			<polygon style="opacity:0.5;fill:#1C071B;" points="406.024,439.339 405.484,447.014 415.755,464.18 443.7,464.18 
				412.812,439.816 			"/>
			
				<line style="fill:none;stroke:#310E2E;stroke-width:0.75;stroke-linecap:round;stroke-miterlimit:10;" x1="410.329" y1="436.992" x2="419.734" y2="382.747"/>
			
				<line style="fill:none;stroke:#310E2E;stroke-width:0.75;stroke-linecap:round;stroke-miterlimit:10;" x1="408.256" y1="436.801" x2="411.86" y2="384.176"/>
			
				<line style="fill:none;stroke:#310E2E;stroke-width:0.75;stroke-linecap:round;stroke-miterlimit:10;" x1="416.462" y1="380.805" x2="415.337" y2="389.555"/>
		</g>
		<g>
			<path style="fill:#310E2E;" d="M413.059,229.088c0,0,16.711,16.119,38.46-18.659c22.464-35.917-1.059-61.028-11.789-69.789
				c-10.732-8.761-23.023-14.296-22.068-21.569c0.954-7.275,11.805-38.514-20.232-40.598c-21.822-1.419-29.931,7.27-35.431,34.914
				c-5.497,27.645-4.934,48.151,24.839,48.682C416.609,162.598,413.059,229.088,413.059,229.088z"/>
			<path style="opacity:0.5;fill:#310E2E;" d="M401.283,169.6c14.015,17.513,11.775,59.488,11.775,59.488
				s16.711,16.119,38.46-18.659c11.627-18.59,10.934-34.284,6.071-46.315c-7.797,6.358-17.13,10.437-27.229,10.942
				C419.586,175.702,409.882,173.649,401.283,169.6z"/>
			<path style="opacity:0.5;fill:#310E2E;" d="M360.741,120.3c-3.926,24.082-1.134,41.281,26.096,41.767
				c0.907,0.016,1.783,0.096,2.63,0.231C376.405,152.128,366.76,136.918,360.741,120.3z"/>
		</g>
		<g>
			<path style="fill:#5755B8;" d="M378.579,219.55l11.342,0.295l23.966,0.624l36.433,54.612c0,0-1.586,6.784-15.682,14.249
				c-14.094,7.466-24.455,6.145-24.455,6.145l-1.722-18.213l-2.423,1.164l1.929,16.902c0,0-2.075,4.222-21.557,2.855
				c-19.479-1.366-29.005-5.149-29.005-5.149s18.753-61.196,19.177-64.058C377.005,226.114,378.579,219.55,378.579,219.55z"/>
			<path style="opacity:0.5;fill:#5755B8;" d="M368.08,257.961c-5.128,16.973-10.675,35.073-10.675,35.073s9.525,3.783,29.005,5.149
				c19.482,1.366,21.557-2.855,21.557-2.855l-1.929-16.902l2.423-1.164l1.722,18.213c0,0,10.361,1.321,24.455-6.145
				c14.096-7.465,15.682-14.249,15.682-14.249l-15.048-22.556c-7.055,4.159-14.503,7.128-21.911,8.529
				C397.723,263.848,382.397,262.582,368.08,257.961z"/>
			<polygon style="fill:#7674E1;" points="404.155,279.884 414.381,273.672 409.433,220.354 387.684,219.787 			"/>
			<path style="opacity:0.5;fill:#7674E1;" d="M404.155,279.884l10.226-6.212l-1.169-12.593c-4.643,0.821-9.257,1.279-13.826,1.404
				L404.155,279.884z"/>
			
				<line style="fill:none;stroke:#310E2E;stroke-width:0.8886;stroke-linecap:round;stroke-miterlimit:10;stroke-dasharray:4.4429;" x1="417.111" y1="229.665" x2="445.845" y2="277.366"/>
			
				<line style="fill:none;stroke:#310E2E;stroke-width:0.8886;stroke-linecap:round;stroke-miterlimit:10;stroke-dasharray:4.4429;" x1="372.61" y1="255.805" x2="363.05" y2="293.393"/>
			<path style="fill:none;stroke:#310E2E;stroke-width:0.937;stroke-linecap:round;stroke-miterlimit:10;" d="M393.11,253.555
				c8.536,4.249,19.885,6.728,29.5,7.25"/>
			<path style="fill:none;stroke:#310E2E;stroke-width:0.937;stroke-linecap:round;stroke-miterlimit:10;" d="M404.36,253.055
				c3.837-3.438,6.66-7.717,9.25-12"/>
			<path style="fill:none;stroke:#310E2E;stroke-width:0.937;stroke-linecap:round;stroke-miterlimit:10;" d="M399.86,282.055
				c6.6-3.827,14.481-7.184,19.833-12.584"/>
		</g>
		<g>
			<path style="fill:#CE654D;" d="M414.164,156.208c0,0,11.941,1.049,13.41,24.512c1.468,23.461,3.202,43.16,1.131,44.126
				c-2.068,0.967-14.699-5.703-14.27-18.353C414.863,193.843,414.164,156.208,414.164,156.208z"/>
			<path style="fill:#FFFFFF;" d="M412.543,220.572c0,0,2.81-27.362,4.918-35.223c2.107-7.86,4.416-9.033,4.03-13.065
				c-0.385-4.031-5.822-15.313-5.822-15.313s-17.81-9.258-22.982-8.508c-5.17,0.749-25.996,12.191-22.037,16.028
				c3.959,3.837,9.943,55.112,9.943,55.112L412.543,220.572z"/>
			<path style="opacity:0.5;fill:#7875E5;" d="M407.36,202.055c-11.228-1.182-22.454-5.858-30.999-13.405
				c2.351,14.837,4.231,30.953,4.231,30.953l31.95,0.969c0,0,0.93-9.052,2.121-18.239
				C412.265,202.514,409.821,202.434,407.36,202.055z"/>
			<path style="fill:#DF8064;" d="M375.251,241.609c0,0-4.572-27.507-7.275-47.273c-2.704-19.766-1.434-36.73,5.329-35.404
				c6.764,1.326,11.373,29.554,12.871,51.634c1.493,22.081,4.522,26.613,5.2,44.81c0.695,18.628,0.999,21.204,2.521,24.869
				c1.523,3.666,4.048,12.075,5.04,20.152c0.989,8.078-0.016,12.902-4.948,13.446c-4.932,0.543-7.415,1.038-9.659-11.357
				c-2.244-12.392,2.07-16.761-0.632-25.85C380.997,267.549,375.251,241.609,375.251,241.609z"/>
			<path style="opacity:0.2;fill:#CE654D;" d="M375.251,241.609c0,0-4.572-27.507-7.275-47.273
				c-2.704-19.766-1.434-36.73,5.329-35.404c6.764,1.326,11.373,29.554,12.871,51.634c1.493,22.081,4.522,26.613,5.2,44.81
				c0.695,18.628,0.999,21.204,2.521,24.869c1.523,3.666,4.048,12.075,5.04,20.152c0.989,8.078-0.016,12.902-4.948,13.446
				c-4.932,0.543-7.415,1.038-9.659-11.357c-2.244-12.392,2.07-16.761-0.632-25.85C380.997,267.549,375.251,241.609,375.251,241.609
				z"/>
			<path style="fill:#DF8064;" d="M391.107,235.853c0,0-6.612,2.947-6.492-2.977c0.024-1.288,0.621-2.648,1.602-4.022
				c3.529-4.943,12.047-10.063,16.954-12.621c6.272-3.268,13.287-6.038,18.536-0.479c5.245,5.558,6.998,9.092,6.998,9.092
				L391.107,235.853z"/>
			<path style="fill:#DF8064;" d="M388.269,242.388c0,0,3.595-1.052,3.05,1.127c-0.544,2.179-2.869,11.142-3.943,11.589
				c-1.072,0.446-4.392-0.569-6.96-1.14c-2.566-0.571-4.18,0.097-4.997-1.263c-0.816-1.362-0.687-0.631-2.4-1.082
				c-1.711-0.452-2.117-3.278-2.258-4.982c-0.142-1.706,7.735-11.067,10.074-13.506c4.215-4.398,7.26-6.233,7.26-6.233
				s3.51,6.988,2.874,10.464C390.332,240.837,388.269,242.388,388.269,242.388z"/>
			<path style="fill:none;stroke:#310E2E;stroke-width:0.937;stroke-linecap:round;stroke-miterlimit:10;" d="M395.193,184.055
				c5.096-1.415,9.921-2.093,15.167-1.667"/>
			<path style="fill:none;stroke:#310E2E;stroke-width:0.937;stroke-linecap:round;stroke-miterlimit:10;" d="M387.527,155.222
				c2.418,2.942,7.85,3.309,11,1.5"/>
			<path style="fill:none;stroke:#310E2E;stroke-width:0.75;stroke-linecap:round;stroke-miterlimit:10;" d="M389.697,312.378
				c-0.686-4.499-1.045-9.051-1.631-13.532"/>
			<path style="fill:none;stroke:#310E2E;stroke-width:0.75;stroke-linecap:round;stroke-miterlimit:10;" d="M392.744,312.378
				c-0.493-5.148-0.815-8.876-1.299-13.899"/>
			<path style="fill:none;stroke:#310E2E;stroke-width:0.75;stroke-linecap:round;stroke-miterlimit:10;" d="M395.794,311.387
				c0.028-5.333-0.561-7.654-0.556-12.994"/>
			<path style="fill:none;stroke:#310E2E;stroke-width:0.75;stroke-linecap:round;stroke-miterlimit:10;" d="M388.111,242.972
				c-0.97,3.071-2.742,6.263-4.167,9.084"/>
			<path style="fill:none;stroke:#310E2E;stroke-width:0.75;stroke-linecap:round;stroke-miterlimit:10;" d="M373.902,250.389
				c-0.221-0.4-0.414-1.202-0.417-1.833"/>
			<path style="fill:none;stroke:#310E2E;stroke-width:0.75;stroke-linecap:round;stroke-miterlimit:10;" d="M385.478,250.014
				c0.843,0.987,1.189,2.288,1.083,3.583"/>
			<path style="fill:none;stroke:#310E2E;stroke-width:0.75;stroke-linecap:round;stroke-miterlimit:10;" d="M377.286,251.805
				c-0.713-0.734-1.03-1.767-0.916-2.833"/>
			<path style="fill:none;stroke:#310E2E;stroke-width:0.75;stroke-linecap:round;stroke-miterlimit:10;" d="M380.372,252.305
				c-0.487-1.044-0.607-2.229-0.334-3.334"/>
		</g>
		<g>
			<path style="fill:#CE654D;" d="M389.928,143.375l-0.582,8.301c0,0,1.301,2.093,3.749,2.042c2.45-0.05,4.229-0.037,4.417-2.693
				c0.186-2.657,0.076-7.559,0.076-7.559L389.928,143.375z"/>
			<path style="fill:#CE654D;" d="M375.236,119.543l-2.1-6.711c0,0-7.209-0.282-4.962,8.885c2.249,9.168,6.449,6.57,6.449,6.57
				L375.236,119.543z"/>
			<path style="fill:#CE654D;" d="M412.755,122.174l3.02-6.352c0,0,7.176,0.727,3.671,9.49c-3.506,8.764-7.304,5.605-7.304,5.605
				L412.755,122.174z"/>
			<path style="fill:#DF8064;" d="M377.373,106.678c0,0-6.565,27.013,1.206,33.565c7.771,6.551,26.388,4.742,30.54,0.695
				c4.15-4.046,3.888-14.187,3.77-18.867c-0.118-4.68,0.718-6.847,0.718-6.847s-4.259,1.815-9.67-6.684
				c-4.848-7.621-4.585-11.14-4.585-11.14L377.373,106.678z"/>
			<path style="fill:#310E2E;" d="M388.194,115.533c-0.806,0.908-2.241,3.935,1.48,3.194c3.722-0.739,5.428-1.598,4.903-4.526
				C394.053,111.272,388.998,114.626,388.194,115.533z"/>
			<path style="fill:#310E2E;" d="M404.383,116.893c0.438,1.143,0.632,3.675-2.951,2.423c-3.584-1.252-4.114-1.806-3.186-4.633
				C399.173,111.856,403.942,115.749,404.383,116.893z"/>
			<path style="fill:none;stroke:#310E2E;stroke-width:0.869;stroke-linecap:round;stroke-miterlimit:10;" d="M396.911,114.068
				c-1.368,3.537-2.51,8.22-1.048,11.57c0.607,1.393,4.965,0.734,1.971,4.048c-1.239,1.374-2.938,1.217-4.476,0.094"/>
			<path style="fill:none;stroke:#310E2E;stroke-width:0.869;stroke-linecap:round;stroke-miterlimit:10;" d="M390.277,134.898
				c2.206-1.935,7.25-2.294,9.075-0.92"/>
			<path style="fill:#310E2E;" d="M391.271,122.585c-0.029,0.428-0.4,0.75-0.829,0.72l0,0c-0.428-0.03-0.752-0.401-0.721-0.829
				l0.139-1.991c0.031-0.428,0.402-0.751,0.83-0.721l0,0c0.429,0.03,0.751,0.402,0.722,0.83L391.271,122.585z"/>
			<path style="fill:#310E2E;" d="M400.056,122.585c-0.031,0.428-0.403,0.75-0.831,0.721l0,0c-0.427-0.03-0.749-0.401-0.719-0.83
				l0.139-1.99c0.029-0.429,0.403-0.751,0.83-0.721l0,0c0.428,0.03,0.75,0.401,0.72,0.83L400.056,122.585z"/>
			<path style="fill:none;stroke:#310E2E;stroke-width:0.6478;stroke-linecap:round;stroke-miterlimit:10;" d="M413.532,126.498
				c2.71-0.75,3.377-2.825,1.012-4.48c0.837-4.137,5.276-6.133,4.171-0.524"/>
			<path style="fill:none;stroke:#310E2E;stroke-width:0.6478;stroke-linecap:round;stroke-miterlimit:10;" d="M373.116,124.434
				c-2.391-1.481-2.447-3.66,0.288-4.584c0.36-4.205-3.339-7.37-3.855-1.676"/>
			<path style="fill:#CE654D;" d="M390.079,127.937c-0.876,3.336-3.941,5.421-6.846,4.658c-2.904-0.763-4.549-4.087-3.672-7.422
				c0.877-3.336,3.434-3.487,6.338-2.724C388.804,123.212,390.956,124.601,390.079,127.937z"/>
			<path style="fill:#CE654D;" d="M410.648,124.576c1.345,3.175,0.193,6.699-2.572,7.871c-2.765,1.171-6.098-0.455-7.442-3.63
				c-1.345-3.177,0.587-4.859,3.353-6.029C406.751,121.616,409.304,121.399,410.648,124.576z"/>
		</g>
	</g>
</g>
</svg>
